<?xml version="1.0" encoding="UTF-8"?>
<svg id="Layer_1" data-name="Layer 1" xmlns="http://www.w3.org/2000/svg" width="1080" height="1080" viewBox="0 0 1080 1080">
  <path d="M120.8,595.21h25.53c3.65,35.25,27.96,49.44,61.59,49.44s53.08-16.21,53.08-40.52-12.97-30.8-55.92-40.52c-42.55-9.72-76.59-19.86-76.59-60.38,0-34.85,29.99-56.73,72.94-56.73,49.84,0,72.94,25.12,77.8,62h-25.12c-2.84-27.15-21.47-41.33-52.68-41.33s-47.81,15.4-47.81,34.85c0,23.91,19.86,29.58,59.97,38.9,42.14,8.91,72.53,19.45,72.53,62.81,0,37.28-29.98,62.4-78.61,62.4-55.92,0-84.28-30.39-86.71-70.91Z"/>
  <path d="M320.17,624.39v-152.76h-31.61v-20.67h31.61v-64.43h25.12v64.43h38.9v20.67h-38.9v148.71c0,14.99,6.89,19.86,20.26,19.86,5.67,0,12.97-1.62,16.61-3.24h1.21v21.48c-6.89,2.43-14.18,3.65-23.1,3.65-23.91,0-40.12-10.94-40.12-37.69Z"/>
  <path d="M393.92,555.91c0-62.4,36.88-109.81,97.25-109.81s96.44,47.41,96.44,109.81-36.06,109.81-96.44,109.81-97.25-47.41-97.25-109.81ZM562.08,555.91c0-49.03-24.31-88.74-70.91-88.74s-71.32,39.71-71.32,88.74,24.31,88.74,71.32,88.74,70.91-39.71,70.91-88.74Z"/>
  <path d="M611.12,450.96h25.12v36.06h.81c14.59-24.72,37.69-40.52,70.91-40.52,50.25,0,86.71,39.71,86.71,109.41,0,64.43-33.23,109.81-88.34,109.81-32.01,0-53.49-12.56-69.29-35.66h-.81v97.66h-25.12v-276.76ZM769.15,556.31c0-52.27-22.69-88.74-64.43-88.74-46.19,0-70.51,39.31-70.51,89.15s23.1,87.93,70.91,87.93c42.95,0,64.02-39.71,64.02-88.34Z"/>
  <path d="M863.16,499.18h-56.73v-55.51c40.12-1.62,69.29-23.91,77.4-63.21h60.38v280h-81.04v-161.27Z"/>
</svg>