<svg xmlns="http://www.w3.org/2000/svg" viewBox="0 0 1080 1080" fill="none">
  <rect width="1080" height="1080" fill="#cd2e2a"/>
  <g fill="#f0ebe4">
    <path d="M168.43,684.71c8.37,95.25,72.22,149.68,187.36,149.68,107.81,0,169.57-49.2,169.57-124.56s-40.82-104.67-173.76-128.75c-130.84-23.03-193.64-59.66-193.64-143.4s65.94-137.12,182.13-137.12c128.75,0,182.13,66.99,195.74,155.96h-31.4c-11.51-77.46-60.71-127.7-164.33-127.7s-150.73,47.1-150.73,108.86,45.01,93.16,172.71,115.14c131.89,23.03,194.69,59.66,194.69,157.01s-78.5,151.77-200.97,151.77c-142.35,0-212.48-75.36-218.76-176.9h31.4Z"/>
    <path d="M720.03,392.67h-153.87v-119.33c95.25-3.14,172.71-48.15,190.5-145.49h140.26v723.29h-176.9v-458.46Z"/>
  </g>
</svg>
